<?xml version="1.0" encoding="UTF-8"?>
<svg id="Layer_1" xmlns="http://www.w3.org/2000/svg" version="1.1" viewBox="0 0 600 120.7">
  <!-- Generator: Adobe Illustrator 30.2.1, SVG Export Plug-In . SVG Version: 2.1.1 Build 1)  -->
  <defs>
    <style>
      .st0 {
        fill: #5ea0bc;
      }

      .st1 {
        fill: #055b7d;
      }
    </style>
  </defs>
  <g id="Logo_Tag_Color">
    <g>
      <g>
        <path class="st1" d="M149,104.1c-9.4,0-16.4-7.3-16.4-16.5h0c0-9.2,6.9-16.7,16.7-16.7s9.7,2,12.6,5l-4.5,5.2c-2.5-2.2-5-3.6-8.2-3.6-5.4,0-9.3,4.5-9.3,10h0c0,5.6,3.8,10.2,9.3,10.2s5.9-1.5,8.4-3.8l4.5,4.5c-3.3,3.5-7,5.7-13.2,5.7h0Z"/>
        <path class="st1" d="M172.4,103.6v-32.1h24.2v6.3h-17.2v6.5h15.1v6.3h-15.1v6.7h17.4v6.3s-24.4,0-24.4,0Z"/>
        <path class="st1" d="M230.1,103.6l-15.5-20.4v20.4h-7v-32.1h6.5l15,19.7v-19.7h7v32.1h-6Z"/>
        <path class="st1" d="M262.9,78v25.6h-7.1v-25.6h-9.8v-6.5h26.6v6.5h-9.8Z"/>
        <path class="st1" d="M282.7,103.6v-32.1h24.2v6.3h-17.2v6.5h15.1v6.3h-15.1v6.7h17.4v6.3h-24.4Z"/>
        <path class="st1" d="M337.4,103.6l-6.9-10.3h-5.5v10.3h-7.1v-32.1h14.7c7.6,0,12.1,4,12.1,10.6h0c0,5.3-2.8,8.5-6.9,10l7.8,11.4h-8.2ZM337.5,82.5c0-3-2.1-4.6-5.5-4.6h-7v9.2h7.1c3.4,0,5.4-1.8,5.4-4.5h0q0,0,0,0Z"/>
      </g>
      <g>
        <path class="st1" d="M162.7,19.7h-25.4v15h22.7v4.3h-22.7v18.3h-4.7V15.3h30.1v4.4h0Z"/>
        <path class="st1" d="M190.5,57.9c-12.8,0-21.3-10-21.3-21.6s8.7-21.7,21.5-21.7,21.3,10,21.3,21.6-8.7,21.7-21.5,21.7ZM190.5,18.9c-9.6,0-16.4,7.7-16.4,17.3s7,17.4,16.5,17.4,16.4-7.7,16.4-17.3-7-17.4-16.5-17.4Z"/>
        <path class="st1" d="M250.8,57.2l-12.2-16.3h-12v16.3h-4.7V15.3h18c9.2,0,15.2,5,15.2,12.5s-4.8,11.1-11.4,12.3l12.9,17.1h-5.8ZM239.6,19.7h-12.9v17h12.9c6.3,0,10.8-3.2,10.8-8.7s-4-8.3-10.7-8.3h0Z"/>
        <path class="st1" d="M284.7,57.9c-13.2,0-21.3-9.6-21.3-21.6s8.4-21.7,21-21.7,11.4,2,15.6,5.6l-3.1,3.6c-3.2-2.8-6.8-4.8-12.8-4.8-9.3,0-15.9,7.8-15.9,17.3s6.4,17.5,16.6,17.5,9.2-1.9,12.1-4.2v-10.4h-12.8v-4.2h17.3v16.7c-3.9,3.5-9.8,6.4-16.8,6.4h0Z"/>
        <path class="st1" d="M342.5,19.6h-25.6v14.3h22.9v4.3h-22.9v14.7h25.9v4.3h-30.6V15.3h30.3v4.3h0Z"/>
        <path class="st1" d="M400.6,57.2l-3.8-9.4h-17.7l-3.8,9.4h-9.4l18-42.2h8.5l18,42.2h-9.6ZM387.9,26.1l-5.6,13.6h11.1l-5.6-13.6Z"/>
        <path class="st1" d="M443,57.2v-16.8h-17v16.8h-9.2V15.3h9.2v16.6h17V15.3h9.2v41.9h-9.2Z"/>
        <path class="st1" d="M462.3,57.2V15.3h31.6v8.2h-22.5v8.5h19.8v8.2h-19.8v8.8h22.8v8.2h-31.9,0Z"/>
        <path class="st1" d="M533.6,57.2l-3.8-9.4h-17.7l-3.8,9.4h-9.4l18-42.2h8.5l18,42.2h-9.6ZM520.9,26.1l-5.6,13.6h11.1l-5.6-13.6h0Z"/>
        <path class="st1" d="M566.1,57.2h-16.4V15.3h16.4c13.2,0,22.3,9.1,22.3,20.9h0c0,11.9-9.1,21.1-22.3,21.1ZM578.7,36.3c0-7.4-5.1-12.6-12.6-12.6h-7.1v25.3h7.1c7.6,0,12.6-5.1,12.6-12.5h0Z"/>
      </g>
    </g>
    <g>
      <path class="st1" d="M89.9,29.8H30.7v19.7h39.5l-19.7,19.7h-19.7v19.7l-19.7,19.7V10.1h98.7l-19.7,19.7Z"/>
      <path class="st0" d="M109.7,10.1v98.7H11l19.7-19.7h19.7v-19.7l19.7-19.7v39.5h19.7V29.8l19.7-19.7Z"/>
    </g>
  </g>
</svg>